# AST/ASF file generated using VICON BodyLanguage
# -----------------------------------------------
:version 1.10
:name VICON
:units
  mass 1.0
  length 0.45
  angle deg
:documentation
   .ast/.asf automatically generated from VICON data using
   VICON BodyBuilder and BodyLanguage model FoxedUp or BRILLIANT.MOD
:root
   order TX TY TZ RX RY RZ
   axis XYZ
   position 0 0 0  
   orientation 0 -0 0 
:bonedata
  begin
     id 1 
     name lhipjoint
     direction 0.515797 -0.759363 0.396637 
     length 2.47888 
     axis 0 -0 0  XYZ
  end
  begin
     id 2 
     name lfemur
     direction 0.34202 -0.939693 0  
     length 6.81885  
     axis 0 -0 20  XYZ
    dof rx ry rz
    limits (-160.0 20.0)
           (-70.0 70.0)
           (-60.0 70.0)
  end
  begin
     id 3 
     name ltibia
     direction 0.342037 -0.939687 0   
     length 7.89258   
     axis 0 -0 20   XYZ
    dof rx
    limits (-10.0 170.0)
  end
  begin
     id 4 
     name lfoot
     direction 0.173497 -0.476678 0.861787   
     length 2.51543   
     axis -90 -1.13533e-015 20   XYZ
    dof rx rz
    limits (-45.0 90.0)
           (-70.0 20.0)
  end
  begin
     id 5 
     name ltoes
     direction 1.53564e-011 -4.21897e-011 1   
     length 1.21388   
     axis -90 -1.13533e-015 20   XYZ
    dof rx
    limits (-90.0 20.0)
  end
  begin
     id 6 
     name rhipjoint
     direction -0.489454 -0.772941 0.403729   
     length 2.43534  
     axis 0 -0 0  XYZ 
  end
  begin
     id 7 
     name rfemur
     direction -0.34202 -0.939693 0   
     length 7.10357   
     axis 0 -0 -20   XYZ
    dof rx ry rz
    limits (-160.0 20.0)
           (-70.0 70.0)
           (-70.0 60.0)
  end
  begin
     id 8 
     name rtibia
     direction -0.34202 -0.939693 0   
     length 9.16127   
     axis 0 -0 -20   XYZ
    dof rx
    limits (-10.0 170.0)
 end
 begin
     id 9 
     name rfoot
     direction -0.270974 -0.748671 0.605033   
     length 1.74894  
     axis -90 1.13533e-015 -20   XYZ
    dof rx rz
    limits (-45.0 90.0)
           (-20.0 70.0)
  end
  begin
     id 10 
     name rtoes
     direction -1.53557e-011 -4.21759e-011 1   
     length 0.787585   
     axis -90 1.13533e-015 -20   XYZ
    dof rx
    limits (-90.0 20.0)
  end
  begin
     id 11 
     name lowerback
     direction -0.0140249 0.999561 0.0260968   
     length 2.16963   
     axis 0 -0 0   XYZ
    dof rx ry rz
    limits (-20.0 45.0)
           (-30.0 30.0)
           (-30.0 30.0)
  end
  begin
     id 12 
     name upperback
     direction 0.00860018 0.999959 -0.002711   
     length 2.1726   
     axis 0 -0 0   XYZ
    dof rx ry rz
    limits (-20.0 45.0)
           (-30.0 30.0)
           (-30.0 30.0)
  end
  begin
     id 13 
     name thorax
     direction 0.015211 0.999782 -0.0143191   
     length 2.17061   
     axis 0 -0 0   XYZ
    dof rx ry rz
    limits (-20.0 45.0)
           (-30.0 30.0)
           (-30.0 30.0)
  end
  begin
     id 14 
     name lowerneck
     direction -0.0140143 0.999447 0.030145   
     length 2.26749   
     axis 0 -0 0   XYZ
    dof rx ry rz
    limits (-20.0 45.0)
           (-30.0 30.0)
           (-30.0 30.0)
  end
  begin
     id 15 
     name upperneck
     direction 0.118062 0.961438 -0.248392   
     length 2.22728   
     axis 0 -0 0   XYZ
    dof rx ry rz
    limits (-20.0 45.0)
           (-30.0 30.0)
           (-30.0 30.0)
  end
  begin
     id 16
     name head
     direction 0.0431885 0.9954 -0.085514  
     length 2.28786  
     axis 0 -0 0   XYZ
    dof rx ry rz
    limits (-20.0 45.0)
           (-30.0 30.0)
           (-30.0 30.0)
  end
  begin
     id 17 
     name lclavicle
     direction 0.912126 0.409548 0.0172323  
     length 4.31571  
     axis 0 -0 0   XYZ
    dof ry rz
    limits (-20.0 10.0)
           (0.0 20.0)
  end
  begin
     id 18 
     name lhumerus
     direction 1 -4.48977e-011 1.93091e-027   
     length 5.13658   
     axis 180 -30 -90   XYZ
    dof rx ry rz
    limits (-60.0 90.0)
           (-90.0 90.0)
           (-90.0 90.0)
  end
  begin
     id 19
     name lradius
     direction 1 -4.48916e-011 6.84018e-027   
     length 3.22473   
     axis 180 -30 -90   XYZ
    dof rx
    limits (-10.0 170.0)
  end
  begin
     id 20
     name lwrist
     direction 1 -4.48987e-011 7.01981e-027   
     length 1.61236   
     axis -4.37994e-015 90 90   XYZ
    dof ry
    limits (-180.0 0.0)
 end
  begin
     id 21 
     name lhand
     direction 1 -4.49037e-011 1.40335e-026   
     length 0.936406   
     axis -8.96029e-015 90 90   XYZ
    dof rx rz
    limits (-90.0 90.0)
           (-45.0 45.0)
  end
  begin
     id 22 
     name lfingers
     direction 1 -4.48886e-011 2.8104e-026   
     length 0.754955   
     axis -1.79203e-014 90 90   XYZ
    dof rx
    limits (0.0 90.0)
  end
  begin
     id 23
     name lthumb
     direction 0.707107 -6.34937e-011 0.707107   
     length 1.08397   
     axis -90 45 -4.48555e-014   XYZ
    dof rx rz
    limits (-45.0 45.0)
           (-45.0 45.0)
  end
  begin
     id 24 
     name rclavicle
     direction -0.947962 0.317997 0.0156638   
     length 4.86918  
     axis 0 -0 0   XYZ 
    dof ry rz
    limits (-10.0 20.0)
           (-20.0 0.0)
  end
  begin
     id 25 
     name rhumerus
     direction -1 -4.48951e-011 2.80534e-018  
     length 5.60911   
     axis 180 30 90   XYZ
    dof rx ry rz
    limits (-90.0 60.0)
           (-90.0 90.0)
           (-90.0 90.0)
  end
  begin
     id 26 
     name rradius
     direction -1 -4.4898e-011 2.11315e-027   
     length 3.38704   
     axis 180 30 90   XYZ
    dof rx
    limits (-10.0 170.0)
  end
  begin
     id 27 
     name rwrist
     direction -1 -4.48933e-011 7.02314e-027   
     length 1.69352   
     axis -4.37994e-015 -90 -90   XYZ
    dof ry
    limits (-180.0 0.0)
  end
  begin
     id 28
     name rhand
     direction -1 -4.48937e-011 1.40458e-026   
     length 0.755878   
     axis -8.96029e-015 -90 -90   XYZ
    dof rx rz
    limits (-90.0 90.0)
           (-45.0 45.0)
  end
  begin
     id 29
     name rfingers
     direction -1 -4.4901e-011 2.80737e-026   
     length 0.609409   
     axis -1.79203e-014 -90 -90   XYZ
    dof rx
    limits (0.0 90.0)
  end
  begin
     id 30
     name rthumb
     direction -0.707107 -6.34968e-011 0.707107   
     length 0.874992   
     axis -90 -45 4.48555e-014   XYZ
    dof rx rz
    limits (-45.0 45.0)
           (-45.0 45.0)
  end
:hierarchy
  begin
    root lhipjoint rhipjoint lowerback
    lhipjoint lfemur
    lfemur ltibia
    ltibia lfoot
    lfoot ltoes
    rhipjoint rfemur
    rfemur rtibia
    rtibia rfoot
    rfoot rtoes
    lowerback upperback
    upperback thorax
    thorax lowerneck lclavicle rclavicle
    lowerneck upperneck
    upperneck head
    lclavicle lhumerus
    lhumerus lradius
    lradius lwrist
    lwrist lhand lthumb
    lhand lfingers
    rclavicle rhumerus
    rhumerus rradius
    rradius rwrist
    rwrist rhand rthumb
    rhand rfingers
  end

#!OML:ASF C:\ViconDB\ViconDB\414\Spring2016\041811\Spring2016.ASF
:FULLY-SPECIFIED
:DEGREES
16
root 6.63111 16.7248 29.8855 -167.238 -3.63336 176.162
lowerback 6.55842 -0.333471 -4.32945
upperback 0.897378 -0.875523 -1.11662
thorax -2.70674 -0.435715 1.35612
lowerneck -13.7425 -2.61819 -13.1841
upperneck 16.7489 -3.86995 14.0455
head 7.93891 -1.56509 6.51858
rclavicle -5.7896e-015 -2.78299e-015
rhumerus -67.2552 1.53546 -92.6449
rradius 62.2291
rwrist 18.6463
rhand -35.5114 -15.4956
rfingers 7.12502
rthumb -8.63831 -45.2989
lclavicle -5.7896e-015 -2.78299e-015
lhumerus -40.1881 -20.863 97.4476
lradius 92.9872
lwrist -17.7877
lhand -34.5215 10.5575
lfingers 7.12502
lthumb -7.68291 40.398
rfemur -38.2368 -6.37852 20.2167
rtibia 65.8679
rfoot -169.563 17.4098
rtoes -7.7714
lfemur 3.2425 -11.247 -20.1666
ltibia 32.1854
lfoot -25.4482 -5.62257
ltoes -26.1671
17
root 6.65109 16.7012 29.7517 -167.102 -3.65466 176.241
lowerback 6.57876 -0.446831 -4.34441
upperback 0.854452 -1.01594 -0.921903
thorax -2.75067 -0.499613 1.57801
lowerneck -14.0191 -2.56313 -13.4386
upperneck 16.7333 -3.75779 14.3535
head 7.97753 -1.49038 6.68756
rclavicle -8.22472e-015 1.13307e-014
rhumerus -68.2228 2.06042 -92.9245
rradius 62.7736
rwrist 17.3412
rhand -34.7142 -15.5186
rfingers 7.12502
rthumb -7.86897 -45.3522
lclavicle -8.22472e-015 1.13307e-014
lhumerus -40.1224 -21.4297 97.4831
lradius 94.6618
lwrist -17.4242
lhand -34.7279 10.4906
lfingers 7.12502
lthumb -7.88215 40.3237
rfemur -38.6201 -6.51412 20.3902
rtibia 67.0815
rfoot -168.748 17.3481
rtoes -7.57809
lfemur 3.55401 -11.2202 -19.948
ltibia 32.1182
lfoot -25.0159 -5.83156
ltoes -26.4609
18
root 6.66805 16.6809 29.6115 -166.986 -3.69064 176.334
lowerback 6.60945 -0.571643 -4.28986
upperback 0.762704 -1.16741 -0.736897
thorax -2.8507 -0.567249 1.75272
lowerneck -14.0234 -2.50386 -13.5262
upperneck 16.6084 -3.67257 14.5141
head 7.92852 -1.44059 6.7659
rclavicle 1.32937e-014 -5.71506e-015
rhumerus -69.2241 2.46844 -93.1754
rradius 63.2201
rwrist 16.7982
rhand -34.5547 -15.1912
rfingers 7.12502
rthumb -7.715 -45.0304
lclavicle 1.32937e-014 -5.71506e-015
lhumerus -40.4314 -21.8437 97.6919
lradius 96.1021
lwrist -17.5523
lhand -34.8502 10.3605
lfingers 7.12502
lthumb -8.0002 40.1891
rfemur -38.8519 -6.83201 20.5314
rtibia 68.0874
rfoot -167.788 17.5018
rtoes -7.62387
lfemur 3.88972 -11.393 -19.7972
ltibia 32.0767
lfoot -24.4224 -5.94829
ltoes -26.389
19
root 6.6882 16.6668 29.4638 -166.872 -3.75911 176.373
lowerback 6.58749 -0.737048 -4.17776
upperback 0.690083 -1.37171 -0.649321
thorax -2.90122 -0.665071 1.79832
lowerneck -13.8697 -2.4252 -13.4178
upperneck 16.3007 -3.58569 14.5911
head 7.78609 -1.38896 6.77203
rclavicle -6.1499e-015 1.51573e-015
rhumerus -69.9992 2.74357 -93.5235
rradius 63.73
rwrist 16.2023
rhand -34.2338 -15.0448
rfingers 7.12502
rthumb -7.40522 -44.8952
lclavicle -6.1499e-015 1.51573e-015
lhumerus -40.7589 -22.4282 97.6388
lradius 97.2796
lwrist -17.3036
lhand -35.1221 10.4667
lfingers 7.12502
lthumb -8.26264 40.2851
rfemur -38.8902 -7.07661 20.634
rtibia 68.8723
rfoot -167.428 17.6252
rtoes -7.93714
lfemur 4.1086 -11.4036 -19.5855
ltibia 32.1704
lfoot -23.6446 -6.34813
ltoes -26.2499
